<svg version="1.2" xmlns="http://www.w3.org/2000/svg" viewBox="0 0 450 450" width="450" height="450">
	<title>Новий проєкт</title>
	<style>
		.s0 { fill: #ff0000;stroke: #000;stroke-miterlimit:100;stroke-width: 5 } 
	</style>
	<path id="Форма 1" fill-rule="evenodd" class="s0" d="m244.6 73.5c-3.5-7-11-11.5-19.2-11.5-8.2 0-15.6 4.5-19.2 11.5l-42.8 84.1-95.8 13.5c-8 1.2-14.7 6.5-17.1 13.8-2.5 7.3-0.5 15.4 5.2 20.8l69.5 65.6-16.4 92.7c-1.3 7.6 2 15.4 8.6 19.9 6.6 4.5 15.3 5.1 22.6 1.5l85.5-43.6 85.5 43.6c7.3 3.6 16 3.1 22.6-1.5 6.6-4.6 9.9-12.3 8.6-19.9l-16.5-92.7 69.5-65.6c5.7-5.4 7.8-13.5 5.3-20.8-2.6-7.3-9.2-12.6-17.2-13.8l-95.8-13.5z"/>
</svg>